<?xml version="1.0" standalone="no"?>
<!DOCTYPE svg PUBLIC "-//W3C//DTD SVG 20010904//EN"
 "http://www.w3.org/TR/2001/REC-SVG-20010904/DTD/svg10.dtd">
<svg version="1.0" xmlns="http://www.w3.org/2000/svg"
 width="1280.000000pt" height="985.000000pt" viewBox="0 0 1280.000000 985.000000"
 preserveAspectRatio="xMidYMid meet">
<metadata>
Created by potrace 1.15, written by Peter Selinger 2001-2017
</metadata>
<g transform="translate(0.000000,985.000000) scale(0.100000,-0.100000)"
fill="#000000" stroke="none">
<path d="M6636 9840 c-828 -54 -1643 -296 -2271 -672 -405 -242 -691 -464
-1001 -773 -345 -345 -595 -681 -864 -1161 -245 -436 -427 -903 -569 -1457
-127 -495 -195 -949 -223 -1489 -11 -218 -13 -238 -30 -238 -22 0 -22 -3 -3
-110 23 -128 20 -297 -5 -355 -57 -133 -196 -291 -385 -435 -406 -310 -937
-752 -1100 -914 -142 -142 -192 -252 -182 -401 24 -343 398 -615 1279 -931
279 -100 575 -189 1264 -379 918 -253 1227 -330 1628 -406 448 -83 729 -113
1086 -113 435 -1 595 28 1025 182 849 306 1625 632 2282 960 l198 99 130 12
c1050 97 2085 314 2755 578 407 161 690 329 884 526 188 191 266 370 266 612
l0 91 -117 89 c-222 170 -365 337 -413 481 -25 74 -24 88 8 297 l19 117 -28 0
c-33 0 -35 9 -44 220 -38 877 -223 1694 -566 2505 -193 458 -476 916 -818
1325 -129 154 -438 463 -586 586 -714 592 -1573 972 -2505 1108 -310 45 -810
66 -1114 46z"/>
</g>
</svg>
